<svg id="Capa_1" enable-background="new 0 0 512.002 512.002" height="512" viewBox="0 0 512.002 512.002" width="512" xmlns="http://www.w3.org/2000/svg"><g><path d="m233.501 262.5 15 75h30v-45z" fill="#4f4f4f"/><path d="m248.501 337.5v-75l-60 30c0 24.853 20.147 45 45 45z" fill="#696969"/><path d="m263.501 172.5h-30l-35 60 50 60h30v-40z" fill="#ff1b7c"/><path d="m338.501 202.5h-30.67c-2.72 20.4-13.63 38.21-29.33 50-4.14 0-7.89-1.68-10.6-4.39-2.72-2.71-4.4-6.47-4.4-10.61v-65h45c16.57 0 30 13.43 30 30z" fill="#ff8d7e"/><path d="m203.501 172.5-15 80v40h60v-40c5.69-4.27 10.73-9.34 15-15.03v-64.97z" fill="#ff4996"/><path d="m203.501 172.5v65c0 8.29-6.72 15-15 15-15.7-11.79-26.61-29.6-29.33-50h-30.67c0-16.57 13.43-30 30-30z" fill="#ffb4a9"/><path d="m434.029 485.556c-3.388-6.776-10.313-11.056-17.889-11.056h-30l27.361 30h30z" fill="#9db55f"/><path d="m386.14 474.5h-65.279c-7.575 0-14.501 4.28-17.889 11.056l-9.472 18.944h120l-9.472-18.944c-3.387-6.776-10.312-11.056-17.888-11.056z" fill="#b9d171"/><path d="m268.028 38.199c2.935-5.651 2.035-12.776-2.707-17.518s-11.868-5.642-17.519-2.707c-1.92-6.071-7.595-10.473-14.301-10.473s-12.381 4.401-14.301 10.472c-5.651-2.935-12.777-2.035-17.519 2.707s-5.642 11.868-2.707 17.518c-6.071 1.92-10.473 7.595-10.473 14.301v45h90s0-36.716 0-45c0-6.705-4.402-12.38-10.473-14.3z" fill="#fff0d3"/><path d="m233.501 52.5v90c24.853 0 45-20.147 45-45s-20.147-45-45-45z" fill="#ff8d7e"/><path d="m248.501 97.5c0-24.853-6.716-45-15-45-24.853 0-45 20.147-45 45s20.147 45 45 45c8.284 0 15-20.147 15-45z" fill="#ffb4a9"/><path d="m318.501 345c6.893 0 12.5 5.607 12.5 12.5v64.234c0 3.228 2.065 6.094 5.128 7.115l30 10c.787.262 1.587.387 2.373.387 3.14 0 6.066-1.988 7.114-5.13 1.31-3.93-.813-8.177-4.743-9.487l-24.872-8.291v-58.828c0-15.164-12.337-27.5-27.5-27.5h-32.5v-73.865c14.235-11.778 24.21-28.178 28.123-46.135h24.377c37.22 0 67.5-30.28 67.5-67.5 0-4.142-3.357-7.5-7.5-7.5s-7.5 3.358-7.5 7.5c0 26.696-20.034 48.785-45.853 52.064-3.652-16.878-18.692-29.564-36.647-29.564h-150c-17.955 0-32.995 12.686-36.647 29.564-25.82-3.279-45.853-25.369-45.853-52.064 0-4.142-3.358-7.5-7.5-7.5s-7.5 3.358-7.5 7.5c0 37.22 30.28 67.5 67.5 67.5h24.377c3.914 17.958 13.887 34.358 28.123 46.135v36.365c0 26.402 19.593 48.304 45 51.956v150.044c0 3.228 2.066 6.094 5.128 7.115l29.999 10c.787.262 1.587.387 2.373.387 3.141 0 6.066-1.988 7.114-5.13 1.31-3.93-.814-8.177-4.743-9.487l-24.872-8.291v-144.094zm-122.5-86.289c8.729-3.096 15-11.432 15-21.21v-57.501h45v57.501c0 9.777 6.271 18.114 15 21.21v26.289h-75zm133.71-63.711h-21.879c-3.759 0-6.938 2.783-7.435 6.509-2.24 16.799-10.968 32.367-24.088 43.164-3.07-.94-5.309-3.798-5.309-7.172v-57.501h37.5c9.778 0 18.115 6.271 21.211 15zm-163.107 6.509c-.497-3.727-3.675-6.509-7.434-6.509h-21.879c3.096-8.729 11.432-15 21.21-15h37.5v57.501c0 3.374-2.239 6.232-5.309 7.172-13.12-10.797-21.848-26.364-24.088-43.164zm30.152 98.491h74.245v30h-37.5c-18.11 0-33.261-12.904-36.745-30z"/><path d="m450.209 501.146-9.472-18.945c-4.689-9.376-14.114-15.201-24.596-15.201h-95.279c-10.483 0-19.908 5.825-24.596 15.202l-9.473 18.944c-1.163 2.325-1.038 5.086.328 7.297s3.78 3.557 6.38 3.557h150c2.6 0 5.014-1.346 6.38-3.557s1.491-4.972.328-7.297zm-144.572-4.146 4.045-8.09c2.131-4.262 6.415-6.91 11.18-6.91h95.279c4.765 0 9.049 2.648 11.181 6.91l4.045 8.09z"/><path d="m233.501 150c28.948 0 52.5-23.551 52.5-52.5v-45c0-7.268-3.432-13.863-9-18.019.999-6.875-1.238-13.965-6.377-19.105-5.14-5.139-12.233-7.375-19.104-6.377-4.155-5.568-10.75-9-18.019-9s-13.863 3.431-18.019 9c-6.873-1-13.965 1.238-19.105 6.377-5.139 5.14-7.376 12.229-6.377 19.104-5.568 4.155-9 10.75-9 18.019v45c.001 28.95 23.552 52.501 52.501 52.501zm-37.5-97.5c0-3.287 2.104-6.16 5.235-7.15 2.111-.668 3.82-2.234 4.667-4.281.847-2.046.748-4.362-.273-6.327-1.514-2.915-.969-6.434 1.354-8.758 2.324-2.324 5.844-2.87 8.758-1.355 1.966 1.021 4.281 1.121 6.327.273s3.613-2.556 4.281-4.667c.99-3.131 3.864-5.235 7.15-5.235s6.16 2.104 7.15 5.235c.668 2.111 2.234 3.82 4.281 4.667 2.044.846 4.361.748 6.327-.273 2.914-1.514 6.435-.97 8.758 1.354 2.324 2.325 2.868 5.845 1.354 8.759-1.021 1.965-1.12 4.281-.272 6.327s2.556 3.612 4.667 4.28c3.131.99 5.234 3.864 5.234 7.15v8.308c-9.535-9.744-22.819-15.807-37.498-15.807s-27.963 6.063-37.5 15.808zm37.5 7.5c20.678 0 37.5 16.822 37.5 37.5s-16.822 37.5-37.5 37.5-37.5-16.822-37.5-37.5 16.822-37.5 37.5-37.5z"/></g></svg>