<svg id="_x33_0" enable-background="new 0 0 64 64" height="512" viewBox="0 0 64 64" width="512" xmlns="http://www.w3.org/2000/svg"><g><g><g><path d="m37.22 39.43-.59-1.16c-.04-.09-.08-.18-.12-.27-.33-.76-.51-1.58-.51-2.42v-5.25l-4-.22c-.03 1.63-.71 3.1-1.79 4.17-1.09 1.06-2.57 1.72-4.21 1.72-3.27 0-5.92-2.61-6-5.86l-4 .29v5.15c0 .94-.22 1.85-.63 2.69l-.59 1.16c-.51 1.03-.78 2.17-.78 3.32 0 1.47.43 2.9 1.25 4.12l.75 1.13h6l1.29-1.29c.23-.23.5-.41.79-.53l-.08-.18v-4h-1c-.55 0-1-.45-1-1v-2c0-.55.45-1 1-1h3 5c.55 0 1 .45 1 1v2c0 .55-.45 1-1 1h-1v6h6l.75-1.13c.82-1.22 1.25-2.65 1.25-4.12 0-1.15-.27-2.29-.78-3.32z" fill="#75b1f2"/></g><g><path d="m30 51v7h-3-3v-4h3c.83 0 1.58-.34 2.12-.88s.88-1.29.88-2.12z" fill="#ccd1d9"/></g><g><path d="m29.12 48.88c-.54-.54-1.29-.88-2.12-.88 0-.55-.22-1.05-.59-1.41-.36-.37-.86-.59-1.41-.59-.32 0-.63.06-.92.18l-.08-.18v-4h6v6 3c0-.83-.34-1.58-.88-2.12z" fill="#ccd1d9"/></g><g><path d="m58 15v3h-4-7.78-4.22v-6h16z" fill="#ccd1d9"/></g><g><path d="m62 11v8c0 .55-.45 1-1 1h-2c-.55 0-1-.45-1-1v-1-3-3-1c0-.55.45-1 1-1h2c.55 0 1 .45 1 1z" fill="#aab2bd"/></g><g><path d="m42 12v6 1c0 .55-.45 1-1 1h-2c-.55 0-1-.45-1-1v-8c0-.55.45-1 1-1h2c.55 0 1 .45 1 1z" fill="#aab2bd"/></g><g><path d="m30 58h1c.55 0 1 .45 1 1v2c0 .55-.45 1-1 1h-8c-.55 0-1-.45-1-1v-2c0-.55.45-1 1-1h1 3z" fill="#aab2bd"/></g><g><path d="m32 39v2c0 .55-.45 1-1 1h-1-6-1c-.55 0-1-.45-1-1v-2c0-.55.45-1 1-1h3 5c.55 0 1 .45 1 1z" fill="#aab2bd"/></g><g><path d="m8 38.45v10.55c0 2.76 2.24 5 5 5h2.76c-.15 1.35-.37 2.7-.67 4.02l-.09-.02h-3.79c-2.55 0-4.85-1.03-6.51-2.7-1.67-1.66-2.7-3.96-2.7-6.51 0-1.82.54-3.6 1.55-5.11 1.78-2.67 3.29-5.49 4.51-8.42l.51.21c-.37.93-.57 1.93-.57 2.98z" fill="#fcd770"/></g><g><path d="m24.2 10.07c-1.38 1.12-2.2 2.82-2.2 4.64v13.43c0 1.05-.81 1.92-1.86 1.99l-.14.01-4 .29-.57.04c-3.14.23-5.75 2.24-6.86 5l-.51-.21c2.59-6.14 3.94-12.77 3.94-19.5v-2.76c0-6.08 4.92-11 11-11h9c1.38 0 2.63.56 3.54 1.46.9.91 1.46 2.16 1.46 3.54 0 1.46-.62 2.77-1.62 3.68-.89.82-2.07 1.32-3.38 1.32-1.01 0-3.14 0-5.01 0-1.28 0-2.37-.8-2.79-1.93z" fill="#fcd770"/></g><g><path d="m46.22 18h7.78v15c0 2.76-2.24 5-5 5h-12.49c-.33-.76-.51-1.58-.51-2.42v-5.25l12 .67v-11l-1.29-1.29c-.21-.21-.37-.45-.49-.71z" fill="#f0d0b4"/></g><g><path d="m24 54v4h-1c-.55 0-1 .45-1 1v2c0 .55.45 1 1 1h-9c.44-1.31.8-2.63 1.09-3.98.3-1.32.52-2.67.67-4.02z" fill="#f0d0b4"/></g><g><path d="m36 48v1.68c0 4.18.68 8.35 2 12.32h-7c.55 0 1-.45 1-1v-2c0-.55-.45-1-1-1h-1v-7-3z" fill="#f0d0b4"/></g><g><path d="m16 48h6l1.29-1.29c.23-.23.5-.41.79-.53s.6-.18.92-.18c.55 0 1.05.22 1.41.59.37.36.59.86.59 1.41.83 0 1.58.34 2.12.88s.88 1.29.88 2.12-.34 1.58-.88 2.12-1.29.88-2.12.88h-3-8.24-2.76c-2.76 0-5-2.24-5-5v-10.55c0-1.05.2-2.05.57-2.98 1.11-2.76 3.72-4.77 6.86-5l.57-.04v5.15c0 .94-.22 1.85-.63 2.69l-.59 1.16c-.51 1.03-.78 2.17-.78 3.32 0 1.47.43 2.9 1.25 4.12z" fill="#f0d0b4"/></g><g><path d="m35.38 10.68c.92 1.66 2.37 4.46 2.59 8.32.02.32.03.66.03 1l-2 1c0 .71-.15 1.39-.42 2-.25.58-.6 1.1-1.04 1.54-.91.9-2.16 1.46-3.54 1.46h-1v2.11c0 1.06.83 1.94 1.89 1.99l.11.01c-.03 1.63-.71 3.1-1.79 4.17-1.09 1.06-2.57 1.72-4.21 1.72-3.27 0-5.92-2.61-6-5.86l.14-.01c1.05-.07 1.86-.94 1.86-1.99v-13.43c0-1.82.82-3.52 2.2-4.64.42 1.13 1.51 1.93 2.79 1.93h5.01c1.31 0 2.49-.5 3.38-1.32z" fill="#f0d0b4"/></g></g><g><path d="m33 15c0 .551-.449 1-1 1s-1-.449-1-1h-2c0 1.654 1.346 3 3 3s3-1.346 3-3z"/><path d="m61 9h-2c-1.103 0-2 .897-2 2h-14c0-1.103-.897-2-2-2h-2c-1.103 0-2 .897-2 2v.631c-.132-.272-.264-.536-.397-.788.871-1.041 1.397-2.381 1.397-3.843 0-1.603-.624-3.109-1.757-4.243-1.133-1.133-2.64-1.757-4.243-1.757h-9c-6.617 0-12 5.383-12 12v2.761c0 9.771-2.865 19.233-8.285 27.364-1.122 1.682-1.715 3.641-1.715 5.664 0 5.63 4.581 10.211 10.211 10.211h2.613c-.229.903-.479 1.801-.773 2.684l-.439 1.316h10.388 8 8.387l-.438-1.316c-1.293-3.879-1.949-7.92-1.949-12.009v-1.373l.585-.878c.926-1.387 1.415-3.003 1.415-4.672 0-1.295-.306-2.592-.883-3.752h10.883c3.309 0 6-2.691 6-6v-14h2c0 1.103.897 2 2 2h2c1.103 0 2-.897 2-2v-8c0-1.103-.897-2-2-2zm-18 10h2.654c.105.145.218.286.346.414l1 1v9.529l-15.055-.836c-.53-.03-.945-.469-.945-.999v-1.108c3.094 0 5.649-2.354 5.967-5.365l1.458-.729c.183.055.374.094.575.094h2c1.103 0 2-.897 2-2zm-4-8 2-.001v8.001h-2zm-4 9.382v.618c0 .347-.058.678-.142 1h-1.622c-.998 0-1.895-.555-2.341-1.447l-1.789.895c.788 1.575 2.37 2.553 4.13 2.553h.382c-.703.615-1.612 1-2.618 1h-4v2h2v1.108c0 1.262.788 2.339 1.904 2.78-.425 2.326-2.469 4.111-4.904 4.111-2.421 0-4.463-1.773-4.9-4.086 1.112-.444 1.9-1.524 1.9-2.777v-13.43c0-1.117.369-2.18 1.034-3.044.731.815 1.78 1.337 2.958 1.337h5.013c1.108 0 2.144-.308 3.036-.835.781 1.528 1.827 4.009 1.948 7.223zm-22-4.621v-2.761c0-5.514 4.486-10 10-10h9c1.069 0 2.073.416 2.829 1.172s1.171 1.761 1.171 2.83c0 2.205-1.792 3.998-3.995 3.998h-5.013c-1.098 0-1.992-.895-1.992-2 0-1.103.897-2 2-2v-2c-2.206 0-4 1.794-4 4.006 0 .252.03.496.074.735-1.322 1.31-2.074 3.083-2.074 4.967v13.43c0 .522-.408.96-.929.998l-4.712.336c-1.781.128-3.414.778-4.756 1.791 1.578-4.98 2.397-10.196 2.397-15.502zm1.174 31.239h-3.174v2h11.414l1.586-1.586c.263-.263.628-.414 1-.414.551 0 1 .449 1 1v1h1c1.103 0 2 .897 2 2s-.897 2-2 2h-14c-2.206 0-4-1.794-4-4v-10.551c0-3.484 2.598-6.429 6-6.921v4.056c0 .772-.183 1.545-.528 2.236l-.583 1.166c-.581 1.163-.889 2.466-.889 3.766 0 1.505.418 2.958 1.174 4.248zm10.826 10v-2h2c.732 0 1.409-.212 2-.556v2.556zm-2-16v-2h8l.001 2zm2 2h4v4.546c-.351-.204-.732-.363-1.14-.453-.385-1.212-1.522-2.093-2.86-2.093zm-13.789 14c-4.527 0-8.211-3.684-8.211-8.211 0-1.627.477-3.202 1.379-4.555.952-1.428 1.822-2.899 2.621-4.401v9.167c0 3.309 2.691 6 6 6h1.612c-.095.67-.208 1.336-.338 2zm4.151 4c.579-1.962.999-3.973 1.271-6h6.367v2c-1.103 0-2 .897-2 2v2zm7.638 0v-2h8v2zm10 0v-2c0-1.103-.897-2-2-2v-8h4v.675c0 3.844.55 7.647 1.638 11.325zm2.921-14.685-.456.685h-4.465v-4c1.103 0 2-.897 2-2v-2c0-1.103-.897-2-2-2h-5-3c-1.103 0-2 .897-2 2v2c0 1.103.897 2 2 2v2.659c-.144.105-.286.212-.414.341l-1 1h-5.051l-.456-.685c-.706-1.058-1.079-2.29-1.079-3.563 0-.992.234-1.985.678-2.873l.583-1.166c.484-.966.739-2.048.739-3.13v-4.223l2.115-.151c.581 3.273 3.47 5.791 6.885 5.791 3.438 0 6.333-2.539 6.894-5.838l2.106.117v4.304c0 1.081.255 2.164.739 3.131l.583 1.166c.444.888.678 1.881.678 2.872 0 1.273-.373 2.505-1.079 3.563zm17.079-13.315c0 2.206-1.794 4-4 4h-11.786c-.136-.46-.214-.937-.214-1.417v-4.193l10.738.596 1.815.908.895-1.789-1.448-.723v-10.796l-.586-.586h4.586zm-10-16v-4h14v4zm18 2h-2v-8h2z"/></g></g></svg>