<svg height="512" viewBox="0 0 61 60" width="512" xmlns="http://www.w3.org/2000/svg"><g id="030---Excersise" fill="none"><g id="Icons" transform="translate(2 1)"><path id="Shape" d="m16 33c0 6.94 0 6.8-.42 8-1.85 4.56-1.12 2.76-3.2 7.91-.5937061 1.5519201.1830799 3.2912939 1.735 3.885s3.2912939-.1830799 3.885-1.735c4.29-9.71 4-8.38 4-11.64 0-.8173814.6626186-1.48 1.48-1.48.7 0 .65.09 4.52 3.2.6285642.4090357 1.0054721 1.1100845 1 1.86v7c-.001173.8241632.3367652 1.612512.9344725 2.1799557.5977073.5674436 1.4025365.8640005 2.2255275.8200443 1.6284097-.1464976 2.8675378-1.5252458 2.84-3.16v-8.84c.0004964-1.2944927-.6254847-2.5091943-1.68-3.26-2.59-2.34-5-4.42-5.32-4.74z" fill="#3f51b5"/><path id="Shape" d="m35 41v8.84c.055041 1.1001062-.4972082 2.1419043-1.4385761 2.7138218-.9413679.5719176-2.1204444.581967-3.0714239.0261782.9401561-.5937169 1.5101816-1.6280678 1.51-2.74v-8.84c.0004964-1.2944927-.6254847-2.5091943-1.68-3.26-3.71-3.35-4.78-4.25-5.32-4.74h3c.31.28 1.61 1.4 5.32 4.74 1.0545153.7508057 1.6804964 1.9655073 1.68 3.26z" fill="#283593"/><path id="Shape" d="m30.14 26.12c1.1712702 1.1698135 3.0687298 1.1698135 4.24 0l3.81-3.75c.9765764-.9327239 1.0765112-2.4578145.23-3.51-.4562441-.5226777-1.1084824-.833197-1.8018396-.8578245-.6933571-.0246274-1.3659828.2388339-1.8581604.7278245l-1.76 1.73c-.3900375.3877236-1.0199625.3877236-1.41 0l-5.67-5.6c-.5726925-.5628486-1.3471202-.8726197-2.15-.86h-6.25c-2 0-2.64.44-8.89 3-2.51849618.9636376-3.81916582 3.7507868-2.94 6.3l1.43 3.95c.24337175.8797213.94684261 1.5568834 1.8351971 1.7665635.88835448.2096801 1.8203742-.081454 2.4314296-.7595032.6110554-.6780491.8040093-1.6352266.5033733-2.4970603l-1-3c-.0811852-.2545962-.0570928-.531095.0669024-.767813.1239951-.2367181.3375768-.4139606.5930976-.492187l4.45-1.5v13h12v-9z" fill="#ffe0b2"/><path id="Shape" d="m38.19 22.37-3.81 3.75c-.9615508.95724-2.4458849 1.1499574-3.62.47.43-.23.25-.11 4.43-4.22.5416179-.5116394.8323763-1.2345657.7958408-1.9787364-.0365355-.7441706-.39671-1.435139-.9858408-1.8912636 1.0492971-.7885116 2.5297095-.6312997 3.39.36.8543342 1.044609.7674631 2.5691971-.2 3.51z" fill="#dfc49c"/><path id="Shape" d="m27 5c0 2.76142375-2.2385763 5-5 5-.5079183-.00162294-1.0130073-.07570266-1.5-.22-2.099772-.64435472-3.5331667-2.58358575-3.5331667-4.78s1.4333947-4.13564528 3.5331667-4.78c.4869927-.14429734.9920817-.21837706 1.5-.22 2.7614237 0 5 2.23857625 5 5z" fill="#dfc49c"/><ellipse id="Oval" cx="20.5" cy="5" fill="#ffe0b2" rx="3.5" ry="4.78"/><path id="Shape" d="m20 46.6-2 4.46c-.619094 1.49836-2.3165951 2.233798-3.8331432 1.6606996s-2.3034262-2.2473749-1.7768568-3.7806996l1.73-4.29z" fill="#ffe0b2"/><path id="Shape" d="m28 33h-12v-13l-2.61.88-1.91-5.06 3.11-1.27c.9329784-.3673861 1.9273011-.5540338 2.93-.55h6.25c.7890632-.0019768 1.5471356.3070006 2.11.86l5.27 5.21-3.15 3.93z" fill="#ff9801"/><path id="Shape" d="m35 44v5.84c.0275378 1.6347542-1.2115903 3.0135024-2.84 3.16-.822991.0439562-1.6278202-.2526007-2.2255275-.8200443-.5977073-.5674437-.9356455-1.3557925-.9344725-2.1799557l-.000003-6z" fill="#ffe0b2"/><path id="Shape" d="m32 44v5.84c-.0022251 1.1163655-.5807633 2.1524403-1.53 2.74.5094159.3040157 1.097531.4501745 1.69.42 1.6284097-.1464976 2.8675378-1.5252458 2.84-3.16v-5.84z" fill="#dfc49c"/><rect id="Rectangle-path" fill="#283593" height="5" rx="2.5" width="58" y="53"/><g fill="#3f51b5"><rect id="Rectangle-path" height="5" rx="2.5" width="55" y="53"/><path id="Shape" d="m57.76 19.38-7.39 8.62-2.37-2.1c-.4033899-.3509395-.6494645-.8487889-.6832848-1.3823974-.0338202-.5336086.1474301-1.058542.5032848-1.4576026l5.41-6.06c.6891973-.783297 1.8647358-.9052047 2.7-.28l1.67 1.26c.4289082.3434539.5003569.9686301.16 1.4z"/></g></g><g id="Layer_11" fill="#000"><path id="Shape" d="m18 6c0 3.3137085 2.6862915 6 6 6s6-2.6862915 6-6-2.6862915-6-6-6-6 2.6862915-6 6zm10 0c0 2.209139-1.790861 4-4 4s-4-1.790861-4-4 1.790861-4 4-4 4 1.790861 4 4z"/><path id="Shape" d="m57.5 53h-3.72l-4.68-18.74c5.8-6.64 2.77-3.16 11.42-13.26.3592246-.4200138.5286316-.9699536.4680143-1.5192981-.0606174-.5493446-.3458546-1.0491167-.7880143-1.3807019l-1.68-1.26c-1.2436552-.9068414-2.9718284-.7253832-4 .42l-5.52 6.13c-.533782.5985909-.8056575 1.385991-.7549271 2.1864038.0507304.8004129.4198423 1.547187 1.0249271 2.0735962l1.73 1.44-3.45 3.91h-16.55v-5.6l.43.43c1.5613099 1.5575332 4.0886901 1.5575332 5.65 0l3.82-3.75c1.0536819-.9800994 1.4023816-2.5040629.8797424-3.844842s-1.8107257-2.2267191-3.2497424-2.235158c-.9210056-.0104817-1.8075266.3498927-2.46 1l-1.82 1.74-5.68-5.61c-.7498693-.7279954-1.7548836-1.1335904-2.8-1.13-9.4 0-6.65-.44-15.5 3.07-3.0242338 1.1596261-4.58222697 4.5101966-3.52 7.57l1.42 3.9c.5010049 1.6533505 2.1362442 2.6913506 3.8456116 2.4410772s2.9783955-1.7134957 2.9843884-3.4410772c0-.76-.11-.9-1.1-4.06l3.1-1.08v10.6h-7c-3.3137085 0-6 2.6862915-6 6v14c-1.93299662.1380712-3.38807119 1.8170034-3.25 3.75s1.81700338 3.3880712 3.75 3.25h53c1.9329966 0 3.5-1.5670034 3.5-3.5s-1.5670034-3.5-3.5-3.5zm-38.5-18h10.69c3.41 3.08 5 4.5 5.05 4.55.7923266.5641267 1.2619926 1.4773663 1.26 2.45v2h-4c.0184965-1.0600444-.5008782-2.0573945-1.38-2.65l-3.62-2.87c-.7451787-.578061-1.7537408-.6834297-2.6023089-.2718741-.8485682.4115555-1.3902633 1.268799-1.3976911 2.2118741 0 2.67.15 2-1.58 5.94l-4-1.32c1.88-4.59 1.58-2.95 1.58-10.04zm17 11v4.84c.0272644 1.1018307-.7943009 2.0407625-1.89 2.16-.5492215.0302536-1.0866593-.1670271-1.4858732-.5454288-.3992138-.3784018-.6249594-.9045177-.6241268-1.4545712l-.0000023-5zm-16.92 5.69c-.2775214.7684318-.9945357 1.2908039-1.8110448 1.3194147-.816509.0286108-1.5683281-.4422927-1.8989552-1.1894147-.2167063-.4761174-.2382456-1.0181892-.06-1.51l1.38-3.41 3.92 1.3zm1.82.79c.11-.23.58-1.3 3.5-7.92.5321772-1.3110851.7380746-2.7317769.6-4.14.0120019-.1788092.1187834-.3375204.2798928-.4160096.1611093-.0784892.3519045-.0647512.5001072.0360096l3.64 2.96c.3503606.2134512.5686979.5898948.58 1v7c.0004385.7053086.1941165 1.3970159.56 2h-9.91c.0992666-.165212.1829601-.3392943.25-.52zm17.1-1.64v-8.84c0-1.5737865-.7409708-3.0557281-2-4l-3.28-3h14.5l4.5 18h-14.31c.3857557-.6545085.5894593-1.4002708.59-2.16zm12.29-25.38c-.0176837-.2669799.0723613-.5299113.25-.73l5.46-6.12c.3445987-.3916485.9323679-.4526024 1.35-.14l1.65 1.26c-.1.05.77-.9-6.73 7.85-1.78-1.58-1.95-1.58-1.98-2.12zm-32.29-6.46c-.5522847 0-1 .4477153-1 1v.29l-3.72 1.26c-1.0487971.3430516-1.6215829 1.4707237-1.28 2.52 1 3.32 1 3.1 1 3.44.0055115.6387535-.3967438 1.2099561-1 1.42-.3832369.1185687-.7979034.0797658-1.152489-.1078457-.3545857-.1876115-.6199427-.5086093-.737511-.8921543l-1.47-3.93c-.6761044-2.0323919.36872988-4.2366836 2.37-5 6.14-2.44 6.7-2.93 8.51-2.93h6.25c.5252998.0042048 1.0293526.2079708 1.41.57l5.66 5.6c.7913048.7379855 2.0186952.7379855 2.81 0l1.82-1.74c.3002777-.2853595.7028553-.4377147 1.116824-.4226612.4139688.0150534.8044174.1962459 1.083176.5026612.494005.655005.4164778 1.5767179-.18 2.14l-3.82 3.75c-.3751365.3755541-.8841815.5865733-1.415.5865733s-1.0398635-.2110192-1.415-.5865733c-.29-.29-4-4-4.13-4.12-.3921222-.3921221-1.0278778-.3921221-1.42 0-.3921221.3921222-.3921221 1.0278778 0 1.42l1.71 1.64v7.59h-10v-13c0-.5522847-.4477153-1-1-1zm-8 16h7v5c0 1-.05.62-3.55 9.55-.3859871.9900379-.353507 2.094359.09 3.06.06.13.14.24.21.36h-7.75v-13.97c0-2.209139 1.790861-4 4-4zm47.5 23h-53c-.82842712 0-1.5-.6715729-1.5-1.5s.67157288-1.5 1.5-1.5h53c.8284271 0 1.5.6715729 1.5 1.5s-.6715729 1.5-1.5 1.5z"/></g></g></svg>